<svg xmlns="http://www.w3.org/2000/svg" xmlns:xlink="http://www.w3.org/1999/xlink" version="1.1" width="269.247pt" height="320pt" viewBox="0 0 269.247 320">
<defs>
<clipPath id="clip_0">
<path transform="matrix(1,0,0,-1,0,320)" d="M0 0H269.247V320H0Z"/>
</clipPath>
</defs>
<g id="layer_1" data-name="Layer 1">
<path transform="matrix(1,0,0,-1,0,320)" d="M0 0H269.247V320H0Z" fill="#003c65"/>
<g clip-path="url(#clip_0)">
<path transform="matrix(1,0,0,-1,131.7017,217.8564)" d="M0 0C.99-.041 2.005-.061 3.045-.061 36.649-.061 44.822 21.955 44.822 40.108 44.822 57.359 37.442 78.097 7.878 80.119L6.089 75.202C5.098 75.243 4.084 75.265 3.045 75.265-30.559 75.265-38.734 53.247-38.734 35.093-38.734 17.845-31.353-2.896-1.786-4.915ZM49.986 37.602C49.986 17.205 40.801-7.532 3.045-7.532-34.712-7.532-43.896 17.205-43.896 37.602-43.896 57.999-34.712 82.737 3.045 82.737 40.801 82.737 49.986 57.999 49.986 37.602" fill="#ffffff"/>
<path transform="matrix(1,0,0,-1,133.5342,154.3403)" d="M0 0C-22.773-.522-28.361-15.794-28.361-28.423-28.361-41.158-22.675-56.585 .594-56.853L2.423-51.827C25.196-51.308 30.785-36.037 30.785-23.407 30.785-10.67 25.099 4.756 1.831 5.024ZM36.889-25.914C36.889-41.007 29.907-59.317 1.213-59.317-27.482-59.317-34.463-41.007-34.463-25.914-34.463-10.821-27.482 7.486 1.213 7.486 29.907 7.486 36.889-10.821 36.889-25.914" fill="#ffffff"/>
<path transform="matrix(1,0,0,-1,137.769,201.187)" d="M0 0 2.955 8.115C5.353 14.705 4.008 19.048-3.022 20.932-10.054 22.817-11.4 27.157-9 33.75L-6.046 41.865C-5.081 41.936-4.075 41.974-3.022 41.974 15.479 41.974 19.978 30.44 19.978 20.932 19.978 11.964 15.974 1.197 0 0" fill="#ffffff"/>
<path transform="matrix(1,0,0,-1,78.0366,259.6206)" d="M0 0C-4.926 1.699-7.861 2.355-10.746 2.355-13.781 2.355-15.985 1.245-15.985-.069-15.985-4.044 1.104-3.188 1.104-12.376 1.104-17.433-3.931-19.843-11.492-19.843-17.413-19.843-20.348-18.644-23.73-17.295V-11.618C-18.855-14.129-15.87-15.017-12.14-15.017-8.905-15.017-6.989-13.516-6.989-11.972-6.989-7.648-23.989-9.231-23.989 .227-23.989 4.784-19.352 7.181-11.492 7.181-7.712 7.181-4.279 6.565 0 5.134Z" fill="#ffffff"/>
<path transform="matrix(1,0,0,-1,0,320)" d="M92.594 40.885H85.451007V67.214H92.594Z" fill="#ffffff"/>
<path transform="matrix(1,0,0,-1,107.3726,279.1157)" d="M0 0H-7.404V26.329H-.609L15.389 9.879V26.329H22.532V0H16.558L0 17.308Z" fill="#ffffff"/>
<path transform="matrix(1,0,0,-1,187.8618,279.1157)" d="M0 0H-22.721V26.329H.024V21.767H-15.667V15.894H-1.53V11.243H-15.667V4.651H0Z" fill="#ffffff"/>
<path transform="matrix(1,0,0,-1,215.4473,257.34809)" d="M0 0H-15.883V-6.221H-1.678V-10.871H-15.883V-21.767H-22.937V4.561H0Z" fill="#ffffff"/>
<path transform="matrix(1,0,0,-1,151.0845,279.1157)" d="M0 0V21.679H10.441V26.329H-17.623V21.679H-7.107V0Z" fill="#ffffff"/>
</g>
</g>
</svg>
